#N canvas 2 45 1276 735 10;
#X obj 246 261 t b b b;
#X obj 246 242 bng 15 250 50 0 empty empty empty 17 7 0 10 -262144
-1 -1;
#X msg 314 286 67;
#X text 23 5 id \, state \, size;
#X obj 18 169 +;
#X obj 18 18 unpack f f f;
#X floatatom 61 142 5 0 0 0 - - -, f 5;
#X floatatom 18 145 5 0 0 0 - - -, f 5;
#X floatatom 18 200 5 0 0 0 - - -, f 5;
#N canvas 415 272 450 250 (subpatch) 0;
#X array chord_table 10 float 3;
#A 0 0 0 0 4 4 7 0 0 -8 0;
#X coords 0 12 10 -12 200 140 1 0 0;
#X restore 482 -38 graph;
#X obj 61 59 tabread chord_table;
#X obj 18 470 noteout 1;
#X obj 246 334 noteout 1;
#X text 12 109 niet te hoge tonen;
#X obj 18 93 * 12;
#X obj 18 122 + 12;
#X obj 70 311 noteout 1;
#N canvas 0 50 450 250 (subpatch) 0;
#X array chord_table2 10 float 3;
#A 0 0 -2 -5 -5 0 4 7 4 0 0;
#X coords 0 12 10 -12 200 140 1 0 0;
#X restore 482 -38 graph;
#X obj 210 58 tabread chord_table2;
#X floatatom 210 83 5 0 0 0 - - -, f 5;
#X obj 70 169 +;
#X floatatom 70 199 5 0 0 0 - - -, f 5;
#X obj 144 311 noteout 2;
#N canvas 0 50 450 250 (subpatch) 0;
#X array velocity_table 10 float 3;
#A 0 0 50 60 100 90 110 70 60 100 0;
#X coords 0 130 10 0 200 140 1 0 0;
#X restore 481 122 graph;
#X obj 211 114 tabread velocity_table;
#X obj 70 246 makenote 110 1000;
#X obj 18 429 makenote 100 1000;
#X obj 246 310 makenote 100 2000;
#X msg 246 285 60;
#X msg 280 286 51;
#X obj 18 69 + 2;
#X obj 18 46 % 6;
#X obj 301 -12 random 12;
#X obj 301 -35 bng 15 250 50 0 empty empty empty 17 7 0 10 -262144
-1 -1;
#X obj 301 12 print;
#X obj 18 -29 tcp_percept tcp port 80;
#X text 319 -45 Bang here to switch chord;
#X text 241 227 just a simple test chord;
#X text 32 329 Use a strings instrument on channel 1;
#X text 131 330 Use a xylophone like instrument on channel 2;
#X connect 0 0 28 0;
#X connect 0 1 29 0;
#X connect 0 2 2 0;
#X connect 1 0 0 0;
#X connect 4 0 8 0;
#X connect 5 0 31 0;
#X connect 5 1 10 0;
#X connect 5 1 18 0;
#X connect 5 1 24 0;
#X connect 6 0 4 1;
#X connect 7 0 4 0;
#X connect 7 0 20 0;
#X connect 8 0 26 0;
#X connect 10 0 6 0;
#X connect 14 0 15 0;
#X connect 15 0 7 0;
#X connect 18 0 19 0;
#X connect 19 0 20 1;
#X connect 20 0 21 0;
#X connect 21 0 25 0;
#X connect 24 0 25 1;
#X connect 25 0 16 0;
#X connect 25 0 22 0;
#X connect 25 1 16 1;
#X connect 25 1 22 1;
#X connect 26 0 11 0;
#X connect 26 1 11 1;
#X connect 27 0 12 0;
#X connect 27 1 12 1;
#X connect 28 0 27 0;
#X connect 29 0 27 0;
#X connect 30 0 14 0;
#X connect 31 0 30 0;
#X connect 32 0 34 0;
#X connect 32 0 15 1;
#X connect 33 0 32 0;
#X connect 35 0 5 0;
