#N canvas 514 45 571 563 10;
#X obj 246 301 t b b b;
#X obj 246 282 bng 15 250 50 0 empty empty empty 17 7 0 10 -262144
-1 -1;
#X msg 314 326 67;
#X text 23 45 id \, state \, size;
#X obj 18 209 +;
#X obj 18 58 unpack f f f;
#X floatatom 61 182 5 0 0 0 - - -, f 5;
#X floatatom 18 185 5 0 0 0 - - -, f 5;
#X floatatom 18 240 5 0 0 0 - - -, f 5;
#N canvas 415 272 450 250 (subpatch) 0;
#X array chord_table 10 float 3;
#A 0 0 0 0 4 4 7 0 0 -8 0;
#X coords 0 12 10 -12 200 140 1 0 0;
#X restore 482 2 graph;
#X obj 61 99 tabread chord_table;
#X obj 18 510 noteout 1;
#X obj 417 226 print;
#X obj 246 382 noteout 1;
#X obj 393 150 / 1518;
#X text 12 149 niet te hoge tonen;
#X obj 18 133 * 12;
#X obj 307 439 notein;
#X obj 278 508 print;
#X obj 307 466 makenote 100 500;
#X obj 307 494 noteout 2;
#X obj 18 162 + 12;
#X obj 70 351 noteout 1;
#N canvas 0 50 450 250 (subpatch) 0;
#X array chord_table2 10 float 3;
#A 0 0 -2 -5 -5 0 4 7 4 0 0;
#X coords 0 12 10 -12 200 140 1 0 0;
#X restore 482 2 graph;
#X obj 152 126 tabread chord_table2;
#X floatatom 154 159 5 0 0 0 - - -, f 5;
#X obj 70 209 +;
#X floatatom 70 239 5 0 0 0 - - -, f 5;
#X obj 393 175 * 30;
#X obj 393 199 + 87;
#X obj 144 351 noteout 2;
#N canvas 0 50 450 250 (subpatch) 0;
#X array velocity_table 10 float 3;
#A 0 0 50 60 100 90 110 70 60 100 0;
#X coords 0 130 10 0 200 140 1 0 0;
#X restore 481 162 graph;
#X obj 233 154 tabread velocity_table;
#X obj 70 286 makenote 110 1000;
#X obj 18 469 makenote 100 1000;
#X obj 246 358 makenote 100 2000;
#X msg 246 325 60;
#X msg 280 326 51;
#X obj 18 109 + 2;
#X obj 18 86 % 6;
#X floatatom 231 85 5 0 0 0 - - -, f 5;
#X obj 307 32 random 12;
#X obj 301 5 bng 15 250 50 0 empty empty empty 17 7 0 10 -262144 -1
-1;
#X obj 304 62 print;
#X obj 18 11 tcp_percept tcp port 80;
#X text 157 -56 Akoorden wissel ingebouwd;
#X connect 0 0 36 0;
#X connect 0 1 37 0;
#X connect 0 2 2 0;
#X connect 1 0 0 0;
#X connect 4 0 8 0;
#X connect 5 0 39 0;
#X connect 5 1 10 0;
#X connect 5 1 24 0;
#X connect 5 1 32 0;
#X connect 6 0 4 1;
#X connect 7 0 4 0;
#X connect 7 0 26 0;
#X connect 8 0 34 0;
#X connect 10 0 6 0;
#X connect 14 0 28 0;
#X connect 16 0 21 0;
#X connect 17 0 18 0;
#X connect 17 0 19 0;
#X connect 19 0 20 0;
#X connect 19 1 20 1;
#X connect 21 0 7 0;
#X connect 24 0 25 0;
#X connect 25 0 26 1;
#X connect 26 0 27 0;
#X connect 27 0 33 0;
#X connect 28 0 29 0;
#X connect 29 0 12 0;
#X connect 29 0 33 1;
#X connect 32 0 33 1;
#X connect 33 0 22 0;
#X connect 33 0 30 0;
#X connect 33 1 22 1;
#X connect 33 1 30 1;
#X connect 34 0 11 0;
#X connect 34 1 11 1;
#X connect 35 0 13 0;
#X connect 35 1 13 1;
#X connect 36 0 35 0;
#X connect 37 0 35 0;
#X connect 38 0 16 0;
#X connect 39 0 38 0;
#X connect 40 0 21 1;
#X connect 41 0 43 0;
#X connect 41 0 21 1;
#X connect 42 0 41 0;
#X connect 44 0 5 0;
